<?xml version="1.0" encoding="utf-8"?>
<!-- Generator: Adobe Illustrator 22.1.0, SVG Export Plug-In . SVG Version: 6.00 Build 0)  -->
<svg version="1.1" id="Layer_1" xmlns="http://www.w3.org/2000/svg" xmlns:xlink="http://www.w3.org/1999/xlink" x="0px" y="0px"
	 viewBox="0 0 1186 1186" style="enable-background:new 0 0 1186 1186;" xml:space="preserve">
<style type="text/css">
	.st0{fill:#17A2B8;}
</style>
<title>logo</title>
<g id="Layer_2_1_">
	<g id="Layer_1-2">
		<path class="st0" d="M91.5,0C41,0,0,41,0,91.5c0,0,0,0,0,0v347.8L439.3,0H91.5z"/>
		<path class="st0" d="M91.5,1186h1003c50.5,0,91.5-41,91.5-91.5l0,0V91.5C1186,41,1145,0,1094.5,0c0,0,0,0,0,0H439.3v347.8
			c0,50.5-41,91.5-91.5,91.5c0,0,0,0,0,0H0v655.2C0,1145,41,1186,91.5,1186C91.5,1186,91.5,1186,91.5,1186z"/>
	</g>
</g>
</svg>
